<svg width="100%" height="100%" preserveAspectRatio="xMidYMax meet" role="img" aria-label="Nana Penny, beads down" viewBox="0 0 300 340" xmlns="http://www.w3.org/2000/svg"><circle cx="94.0" cy="150.0" r="23.4" fill="#CFC7BE"></circle><circle cx="98.0" cy="124.0" r="23.4" fill="#CFC7BE"></circle><circle cx="114.0" cy="102.0" r="25.4" fill="#CFC7BE"></circle><circle cx="140.0" cy="90.0" r="26.4" fill="#CFC7BE"></circle><circle cx="168.0" cy="90.0" r="26.4" fill="#CFC7BE"></circle><circle cx="192.0" cy="104.0" r="25.4" fill="#CFC7BE"></circle><circle cx="206.0" cy="128.0" r="23.4" fill="#CFC7BE"></circle><circle cx="208.0" cy="152.0" r="20.4" fill="#CFC7BE"></circle><circle cx="92.0" cy="172.0" r="16.4" fill="#CFC7BE"></circle><circle cx="208.0" cy="172.0" r="16.4" fill="#CFC7BE"></circle><circle cx="94.0" cy="150.0" r="22.0" fill="#FAF8F4"></circle><circle cx="98.0" cy="124.0" r="22.0" fill="#FAF8F4"></circle><circle cx="114.0" cy="102.0" r="24.0" fill="#FAF8F4"></circle><circle cx="140.0" cy="90.0" r="25.0" fill="#FAF8F4"></circle><circle cx="168.0" cy="90.0" r="25.0" fill="#FAF8F4"></circle><circle cx="192.0" cy="104.0" r="24.0" fill="#FAF8F4"></circle><circle cx="206.0" cy="128.0" r="22.0" fill="#FAF8F4"></circle><circle cx="208.0" cy="152.0" r="19.0" fill="#FAF8F4"></circle><circle cx="92.0" cy="172.0" r="15.0" fill="#FAF8F4"></circle><circle cx="208.0" cy="172.0" r="15.0" fill="#FAF8F4"></circle><path d="M36 340 C42 292 78 268 118 262 L182 262 C222 268 258 292 264 340 Z" fill="#F4C21B" stroke="#9C7405" stroke-width="2" stroke-linecap="round" stroke-linejoin="round"></path><path d="M118 262 L150 322 L182 262 Z" fill="#FFFFFF" stroke="#D8D0C4" stroke-width="1.6" stroke-linecap="round" stroke-linejoin="round"></path><path d="M118 262 L136 296 L150 278 Z" fill="#FFFFFF" stroke="#D8D0C4" stroke-width="1.6" stroke-linecap="round" stroke-linejoin="round"></path><path d="M182 262 L164 296 L150 278 Z" fill="#FFFFFF" stroke="#D8D0C4" stroke-width="1.6" stroke-linecap="round" stroke-linejoin="round"></path><path d="M114 263 L140 306 L126 340" fill="none" stroke="#9C7405" stroke-width="2" stroke-linecap="round" stroke-linejoin="round"></path><path d="M186 263 L160 306 L174 340" fill="none" stroke="#9C7405" stroke-width="2" stroke-linecap="round" stroke-linejoin="round"></path><path d="M114 263 L132 300 L118 304 Z" fill="#D9A410"></path><path d="M186 263 L168 300 L182 304 Z" fill="#D9A410"></path><rect x="132" y="218" width="36" height="50" rx="12" fill="#F1C7AE" stroke="#3A2626" stroke-width="1.6" stroke-opacity="0.35"></rect><path d="M134 236 Q150 246 166 236 L166 226 L134 226 Z" fill="#DDA488" opacity="0.7"></path><path d="M122.0 264.0 Q150.0 318.0 178.0 264.0" fill="none" stroke="#3A2626" stroke-width="0.8" stroke-linecap="round" stroke-linejoin="round" opacity="0.35"></path><circle cx="122.0" cy="264.0" r="4.6" fill="#E94F64" stroke="#3A2626" stroke-width="1.1"></circle><circle cx="126.7" cy="272.2" r="4.6" fill="#2F9BD6" stroke="#3A2626" stroke-width="1.1"></circle><circle cx="131.3" cy="279.0" r="4.6" fill="#F7B32B" stroke="#3A2626" stroke-width="1.1"></circle><circle cx="136.0" cy="284.2" r="4.6" fill="#57B36A" stroke="#3A2626" stroke-width="1.1"></circle><circle cx="140.7" cy="288.0" r="4.6" fill="#8A5CC7" stroke="#3A2626" stroke-width="1.1"></circle><circle cx="145.3" cy="290.2" r="4.6" fill="#FF8A3D" stroke="#3A2626" stroke-width="1.1"></circle><path d="M113.0 264.0 Q150.0 344.0 187.0 264.0" fill="none" stroke="#3A2626" stroke-width="0.8" stroke-linecap="round" stroke-linejoin="round" opacity="0.35"></path><circle cx="113.0" cy="264.0" r="5.2" fill="#F7B32B" stroke="#3A2626" stroke-width="1.1"></circle><circle cx="117.9" cy="274.0" r="5.2" fill="#57B36A" stroke="#3A2626" stroke-width="1.1"></circle><circle cx="122.9" cy="282.5" r="5.2" fill="#8A5CC7" stroke="#3A2626" stroke-width="1.1"></circle><circle cx="127.8" cy="289.6" r="5.2" fill="#FF8A3D" stroke="#3A2626" stroke-width="1.1"></circle><circle cx="132.7" cy="295.3" r="5.2" fill="#FFFFFF" stroke="#3A2626" stroke-width="1.1"></circle><circle cx="137.7" cy="299.6" r="5.2" fill="#E94F64" stroke="#3A2626" stroke-width="1.1"></circle><circle cx="142.6" cy="302.4" r="5.2" fill="#2F9BD6" stroke="#3A2626" stroke-width="1.1"></circle><circle cx="147.5" cy="303.8" r="5.2" fill="#F7B32B" stroke="#3A2626" stroke-width="1.1"></circle><circle cx="152.5" cy="303.8" r="5.2" fill="#57B36A" stroke="#3A2626" stroke-width="1.1"></circle><circle cx="157.4" cy="302.4" r="5.2" fill="#8A5CC7" stroke="#3A2626" stroke-width="1.1"></circle><circle cx="162.3" cy="299.6" r="5.2" fill="#FF8A3D" stroke="#3A2626" stroke-width="1.1"></circle><path d="M104.0 264.0 Q150.0 370.0 196.0 264.0" fill="none" stroke="#3A2626" stroke-width="0.8" stroke-linecap="round" stroke-linejoin="round" opacity="0.35"></path><circle cx="104.0" cy="264.0" r="5.8" fill="#8A5CC7" stroke="#3A2626" stroke-width="1.1"></circle><circle cx="109.1" cy="275.1" r="5.8" fill="#FF8A3D" stroke="#3A2626" stroke-width="1.1"></circle><circle cx="114.2" cy="284.9" r="5.8" fill="#FFFFFF" stroke="#3A2626" stroke-width="1.1"></circle><circle cx="119.3" cy="293.4" r="5.8" fill="#E94F64" stroke="#3A2626" stroke-width="1.1"></circle><circle cx="124.4" cy="300.6" r="5.8" fill="#2F9BD6" stroke="#3A2626" stroke-width="1.1"></circle><circle cx="129.6" cy="306.5" r="5.8" fill="#F7B32B" stroke="#3A2626" stroke-width="1.1"></circle><circle cx="134.7" cy="311.1" r="5.8" fill="#57B36A" stroke="#3A2626" stroke-width="1.1"></circle><circle cx="139.8" cy="314.4" r="5.8" fill="#8A5CC7" stroke="#3A2626" stroke-width="1.1"></circle><circle cx="176.0" cy="300.0" r="5.0" fill="#E94F64" stroke="#3A2626" stroke-width="1.1"></circle><circle cx="190.0" cy="318.0" r="5.5" fill="#2F9BD6" stroke="#3A2626" stroke-width="1.1"></circle><circle cx="204.0" cy="296.0" r="4.8" fill="#F7B32B" stroke="#3A2626" stroke-width="1.1"></circle><circle cx="168.0" cy="330.0" r="5.2" fill="#57B36A" stroke="#3A2626" stroke-width="1.1"></circle><circle cx="214.0" cy="326.0" r="5.0" fill="#8A5CC7" stroke="#3A2626" stroke-width="1.1"></circle><circle cx="232.0" cy="306.0" r="4.6" fill="#FF8A3D" stroke="#3A2626" stroke-width="1.1"></circle><circle cx="96.0" cy="318.0" r="5.0" fill="#FFFFFF" stroke="#3A2626" stroke-width="1.1"></circle><circle cx="84.0" cy="300.0" r="4.6" fill="#E94F64" stroke="#3A2626" stroke-width="1.1"></circle><circle cx="110.0" cy="334.0" r="5.4" fill="#2F9BD6" stroke="#3A2626" stroke-width="1.1"></circle><circle cx="240.0" cy="286.0" r="4.2" fill="#F7B32B" stroke="#3A2626" stroke-width="1.1"></circle><circle cx="60.0" cy="312.0" r="4.4" fill="#57B36A" stroke="#3A2626" stroke-width="1.1"></circle><path d="M244 276 l6 -6 M250 281 l6 -6" fill="none" stroke="#3A2626" stroke-width="1.4" stroke-linecap="round" stroke-linejoin="round" opacity="0.5"></path><path d="M52 296 l6 -6 M58 301 l6 -6" fill="none" stroke="#3A2626" stroke-width="1.4" stroke-linecap="round" stroke-linejoin="round" opacity="0.5"></path><path d="M222 290 l6 -6 M228 295 l6 -6" fill="none" stroke="#3A2626" stroke-width="1.4" stroke-linecap="round" stroke-linejoin="round" opacity="0.5"></path><ellipse cx="97.0" cy="180.0" rx="9.0" ry="13.0" fill="#F1C7AE" stroke="#3A2626" stroke-width="1.4" stroke-opacity="0.4"></ellipse><ellipse cx="203.0" cy="180.0" rx="9.0" ry="13.0" fill="#F1C7AE" stroke="#3A2626" stroke-width="1.4" stroke-opacity="0.4"></ellipse><ellipse cx="150.0" cy="172.0" rx="54.0" ry="60.0" fill="#F1C7AE" stroke="#3A2626" stroke-width="1.8" stroke-opacity="0.45"></ellipse><path d="M110 206 Q150 236 190 206 Q150 246 110 206 Z" fill="#DDA488" opacity="0.35"></path><ellipse cx="118.0" cy="200.0" rx="11.0" ry="6.5" fill="#F0907F" opacity="0.55"></ellipse><ellipse cx="182.0" cy="200.0" rx="11.0" ry="6.5" fill="#F0907F" opacity="0.55"></ellipse><path d="M127 205 Q124 213 128 220" fill="none" stroke="#DDA488" stroke-width="1.6" stroke-linecap="round" stroke-linejoin="round"></path><path d="M173 205 Q176 213 172 220" fill="none" stroke="#DDA488" stroke-width="1.6" stroke-linecap="round" stroke-linejoin="round"></path><path d="M150 178 Q145 192 151 194 Q155 195 157 192" fill="none" stroke="#DDA488" stroke-width="2.4" stroke-linecap="round" stroke-linejoin="round"></path><path d="M121 169 L130 174 L121 179" fill="none" stroke="#3A2626" stroke-width="2.8" stroke-linecap="round" stroke-linejoin="round"></path><path d="M179 169 L170 174 L179 179" fill="none" stroke="#3A2626" stroke-width="2.8" stroke-linecap="round" stroke-linejoin="round"></path><path d="M126 180 Q122 192 125 196 Q129 192 126 180 Z" fill="#5FB4E8"></path><path d="M174 180 Q178 192 175 196 Q171 192 174 180 Z" fill="#5FB4E8"></path><path d="M118 154 Q128 154 137 148" fill="none" stroke="#B9AFA4" stroke-width="3.4" stroke-linecap="round" stroke-linejoin="round"></path><path d="M163 148 Q172 154 182 154" fill="none" stroke="#B9AFA4" stroke-width="3.4" stroke-linecap="round" stroke-linejoin="round"></path><path d="M132 206 Q150 200 168 206 Q166 230 150 232 Q134 230 132 206 Z" fill="#5B1D24" stroke="#D22F3C" stroke-width="3" stroke-linecap="round" stroke-linejoin="round"></path><path d="M140 226 Q150 220 160 226" fill="#E86F7B"></path><circle cx="116.0" cy="118.0" r="16.4" fill="#CFC7BE"></circle><circle cx="136.0" cy="110.0" r="17.4" fill="#CFC7BE"></circle><circle cx="158.0" cy="108.0" r="17.4" fill="#CFC7BE"></circle><circle cx="180.0" cy="114.0" r="17.4" fill="#CFC7BE"></circle><circle cx="194.0" cy="126.0" r="13.4" fill="#CFC7BE"></circle><circle cx="104.0" cy="132.0" r="13.4" fill="#CFC7BE"></circle><circle cx="116.0" cy="118.0" r="15.0" fill="#FAF8F4"></circle><circle cx="136.0" cy="110.0" r="16.0" fill="#FAF8F4"></circle><circle cx="158.0" cy="108.0" r="16.0" fill="#FAF8F4"></circle><circle cx="180.0" cy="114.0" r="16.0" fill="#FAF8F4"></circle><circle cx="194.0" cy="126.0" r="12.0" fill="#FAF8F4"></circle><circle cx="104.0" cy="132.0" r="12.0" fill="#FAF8F4"></circle><path d="M109.2 119.5 Q116.0 110.5 122.8 119.5" fill="none" stroke="#CFC7BE" stroke-width="1.4" stroke-linecap="round" stroke-linejoin="round"></path><path d="M128.8 111.6 Q136.0 102.0 143.2 111.6" fill="none" stroke="#CFC7BE" stroke-width="1.4" stroke-linecap="round" stroke-linejoin="round"></path><path d="M150.8 109.6 Q158.0 100.0 165.2 109.6" fill="none" stroke="#CFC7BE" stroke-width="1.4" stroke-linecap="round" stroke-linejoin="round"></path><path d="M172.8 115.6 Q180.0 106.0 187.2 115.6" fill="none" stroke="#CFC7BE" stroke-width="1.4" stroke-linecap="round" stroke-linejoin="round"></path><path d="M102 176 Q96 236 111.0 300.0 M198 176 Q204 236 189.0 300.0" fill="none" stroke="#E2A12A" stroke-width="1.8" stroke-linecap="round" stroke-linejoin="round" stroke-dasharray="2 2.5"></path><g transform="rotate(14 150.0 300.0)"><circle cx="129.1" cy="300.0" r="18.1" fill="#CFE7F5" fill-opacity="0.35"></circle><circle cx="170.9" cy="300.0" r="18.1" fill="#CFE7F5" fill-opacity="0.35"></circle><path d="M146.2 297.0 Q150.0 290.5 153.8 297.0" fill="none" stroke="#D93A3F" stroke-width="4.56" stroke-linecap="round" stroke-linejoin="round"></path><circle cx="129.1" cy="300.0" r="18.1" fill="none" stroke="#D93A3F" stroke-width="4.56"></circle><circle cx="170.9" cy="300.0" r="18.1" fill="none" stroke="#D93A3F" stroke-width="4.56"></circle><path d="M119.2 295.5 Q121.0 289.2 127.3 288.8" fill="none" stroke="#FFFFFF" stroke-width="2.2" stroke-linecap="round" stroke-linejoin="round"></path><path d="M161.0 295.5 Q162.8 289.2 169.1 288.8" fill="none" stroke="#FFFFFF" stroke-width="2.2" stroke-linecap="round" stroke-linejoin="round"></path></g><path d="M262 352 L206 150" fill="none" stroke="#9C7405" stroke-width="34" stroke-linecap="round" stroke-linejoin="round"></path><path d="M262 352 L206 150" fill="none" stroke="#F4C21B" stroke-width="30" stroke-linecap="round" stroke-linejoin="round"></path><path d="M222.8 210.6 L206 150" fill="none" stroke="#F1C7AE" stroke-width="22" stroke-linecap="round" stroke-linejoin="round"></path><path d="M221.1 204.6 L220.0 200.4" fill="none" stroke="#3A2626" stroke-width="24" stroke-linecap="round" stroke-linejoin="round"></path><path d="M221.0 204.1 L220.1 201.0" fill="none" stroke="#2F9BD6" stroke-width="22" stroke-linecap="round" stroke-linejoin="round"></path><path d="M217.8 192.5 L216.6 188.3" fill="none" stroke="#3A2626" stroke-width="24" stroke-linecap="round" stroke-linejoin="round"></path><path d="M217.6 191.9 L216.8 188.9" fill="none" stroke="#57B36A" stroke-width="22" stroke-linecap="round" stroke-linejoin="round"></path><path d="M214.4 180.4 L213.3 176.2" fill="none" stroke="#3A2626" stroke-width="24" stroke-linecap="round" stroke-linejoin="round"></path><path d="M214.3 179.8 L213.4 176.7" fill="none" stroke="#FF8A3D" stroke-width="22" stroke-linecap="round" stroke-linejoin="round"></path><ellipse cx="184.0" cy="132.0" rx="22.0" ry="14.0" fill="#F1C7AE" stroke="#3A2626" stroke-width="1.6" stroke-opacity="0.5" transform="rotate(-18 184.0 132.0)"></ellipse><path d="M168.0 134.0 L174.0 142.0" fill="none" stroke="#DDA488" stroke-width="1.4" stroke-linecap="round" stroke-linejoin="round"></path><path d="M177.0 131.0 L183.0 139.0" fill="none" stroke="#DDA488" stroke-width="1.4" stroke-linecap="round" stroke-linejoin="round"></path><path d="M186.0 128.0 L192.0 136.0" fill="none" stroke="#DDA488" stroke-width="1.4" stroke-linecap="round" stroke-linejoin="round"></path></svg>