<svg width="100%" height="100%" preserveAspectRatio="xMidYMax meet" role="img" aria-label="Nana Penny, shocked" viewBox="0 0 300 340" xmlns="http://www.w3.org/2000/svg"><circle cx="94.0" cy="150.0" r="23.4" fill="#CFC7BE"></circle><circle cx="98.0" cy="124.0" r="23.4" fill="#CFC7BE"></circle><circle cx="114.0" cy="102.0" r="25.4" fill="#CFC7BE"></circle><circle cx="140.0" cy="90.0" r="26.4" fill="#CFC7BE"></circle><circle cx="168.0" cy="90.0" r="26.4" fill="#CFC7BE"></circle><circle cx="192.0" cy="104.0" r="25.4" fill="#CFC7BE"></circle><circle cx="206.0" cy="128.0" r="23.4" fill="#CFC7BE"></circle><circle cx="208.0" cy="152.0" r="20.4" fill="#CFC7BE"></circle><circle cx="92.0" cy="172.0" r="16.4" fill="#CFC7BE"></circle><circle cx="208.0" cy="172.0" r="16.4" fill="#CFC7BE"></circle><circle cx="94.0" cy="150.0" r="22.0" fill="#FAF8F4"></circle><circle cx="98.0" cy="124.0" r="22.0" fill="#FAF8F4"></circle><circle cx="114.0" cy="102.0" r="24.0" fill="#FAF8F4"></circle><circle cx="140.0" cy="90.0" r="25.0" fill="#FAF8F4"></circle><circle cx="168.0" cy="90.0" r="25.0" fill="#FAF8F4"></circle><circle cx="192.0" cy="104.0" r="24.0" fill="#FAF8F4"></circle><circle cx="206.0" cy="128.0" r="22.0" fill="#FAF8F4"></circle><circle cx="208.0" cy="152.0" r="19.0" fill="#FAF8F4"></circle><circle cx="92.0" cy="172.0" r="15.0" fill="#FAF8F4"></circle><circle cx="208.0" cy="172.0" r="15.0" fill="#FAF8F4"></circle><path d="M36 340 C42 292 78 268 118 262 L182 262 C222 268 258 292 264 340 Z" fill="#F4C21B" stroke="#9C7405" stroke-width="2" stroke-linecap="round" stroke-linejoin="round"></path><path d="M118 262 L150 322 L182 262 Z" fill="#FFFFFF" stroke="#D8D0C4" stroke-width="1.6" stroke-linecap="round" stroke-linejoin="round"></path><path d="M118 262 L136 296 L150 278 Z" fill="#FFFFFF" stroke="#D8D0C4" stroke-width="1.6" stroke-linecap="round" stroke-linejoin="round"></path><path d="M182 262 L164 296 L150 278 Z" fill="#FFFFFF" stroke="#D8D0C4" stroke-width="1.6" stroke-linecap="round" stroke-linejoin="round"></path><path d="M114 263 L140 306 L126 340" fill="none" stroke="#9C7405" stroke-width="2" stroke-linecap="round" stroke-linejoin="round"></path><path d="M186 263 L160 306 L174 340" fill="none" stroke="#9C7405" stroke-width="2" stroke-linecap="round" stroke-linejoin="round"></path><path d="M114 263 L132 300 L118 304 Z" fill="#D9A410"></path><path d="M186 263 L168 300 L182 304 Z" fill="#D9A410"></path><rect x="132" y="218" width="36" height="50" rx="12" fill="#F1C7AE" stroke="#3A2626" stroke-width="1.6" stroke-opacity="0.35"></rect><path d="M134 236 Q150 246 166 236 L166 226 L134 226 Z" fill="#DDA488" opacity="0.7"></path><path d="M122.0 264.0 Q150.0 318.0 178.0 264.0" fill="none" stroke="#3A2626" stroke-width="0.8" stroke-linecap="round" stroke-linejoin="round" opacity="0.35"></path><circle cx="122.0" cy="264.0" r="4.6" fill="#E94F64" stroke="#3A2626" stroke-width="1.1"></circle><circle cx="126.7" cy="272.2" r="4.6" fill="#2F9BD6" stroke="#3A2626" stroke-width="1.1"></circle><circle cx="131.3" cy="279.0" r="4.6" fill="#F7B32B" stroke="#3A2626" stroke-width="1.1"></circle><circle cx="136.0" cy="284.2" r="4.6" fill="#57B36A" stroke="#3A2626" stroke-width="1.1"></circle><circle cx="140.7" cy="288.0" r="4.6" fill="#8A5CC7" stroke="#3A2626" stroke-width="1.1"></circle><circle cx="145.3" cy="290.2" r="4.6" fill="#FF8A3D" stroke="#3A2626" stroke-width="1.1"></circle><circle cx="150.0" cy="291.0" r="4.6" fill="#FFFFFF" stroke="#3A2626" stroke-width="1.1"></circle><circle cx="154.7" cy="290.2" r="4.6" fill="#E94F64" stroke="#3A2626" stroke-width="1.1"></circle><circle cx="159.3" cy="288.0" r="4.6" fill="#2F9BD6" stroke="#3A2626" stroke-width="1.1"></circle><circle cx="164.0" cy="284.2" r="4.6" fill="#F7B32B" stroke="#3A2626" stroke-width="1.1"></circle><circle cx="168.7" cy="279.0" r="4.6" fill="#57B36A" stroke="#3A2626" stroke-width="1.1"></circle><circle cx="173.3" cy="272.2" r="4.6" fill="#8A5CC7" stroke="#3A2626" stroke-width="1.1"></circle><circle cx="178.0" cy="264.0" r="4.6" fill="#FF8A3D" stroke="#3A2626" stroke-width="1.1"></circle><path d="M113.0 264.0 Q150.0 344.0 187.0 264.0" fill="none" stroke="#3A2626" stroke-width="0.8" stroke-linecap="round" stroke-linejoin="round" opacity="0.35"></path><circle cx="113.0" cy="264.0" r="5.2" fill="#F7B32B" stroke="#3A2626" stroke-width="1.1"></circle><circle cx="117.9" cy="274.0" r="5.2" fill="#57B36A" stroke="#3A2626" stroke-width="1.1"></circle><circle cx="122.9" cy="282.5" r="5.2" fill="#8A5CC7" stroke="#3A2626" stroke-width="1.1"></circle><circle cx="127.8" cy="289.6" r="5.2" fill="#FF8A3D" stroke="#3A2626" stroke-width="1.1"></circle><circle cx="132.7" cy="295.3" r="5.2" fill="#FFFFFF" stroke="#3A2626" stroke-width="1.1"></circle><circle cx="137.7" cy="299.6" r="5.2" fill="#E94F64" stroke="#3A2626" stroke-width="1.1"></circle><circle cx="142.6" cy="302.4" r="5.2" fill="#2F9BD6" stroke="#3A2626" stroke-width="1.1"></circle><circle cx="147.5" cy="303.8" r="5.2" fill="#F7B32B" stroke="#3A2626" stroke-width="1.1"></circle><circle cx="152.5" cy="303.8" r="5.2" fill="#57B36A" stroke="#3A2626" stroke-width="1.1"></circle><circle cx="157.4" cy="302.4" r="5.2" fill="#8A5CC7" stroke="#3A2626" stroke-width="1.1"></circle><circle cx="162.3" cy="299.6" r="5.2" fill="#FF8A3D" stroke="#3A2626" stroke-width="1.1"></circle><circle cx="167.3" cy="295.3" r="5.2" fill="#FFFFFF" stroke="#3A2626" stroke-width="1.1"></circle><circle cx="172.2" cy="289.6" r="5.2" fill="#E94F64" stroke="#3A2626" stroke-width="1.1"></circle><circle cx="177.1" cy="282.5" r="5.2" fill="#2F9BD6" stroke="#3A2626" stroke-width="1.1"></circle><circle cx="182.1" cy="274.0" r="5.2" fill="#F7B32B" stroke="#3A2626" stroke-width="1.1"></circle><circle cx="187.0" cy="264.0" r="5.2" fill="#57B36A" stroke="#3A2626" stroke-width="1.1"></circle><path d="M104.0 264.0 Q150.0 370.0 196.0 264.0" fill="none" stroke="#3A2626" stroke-width="0.8" stroke-linecap="round" stroke-linejoin="round" opacity="0.35"></path><circle cx="104.0" cy="264.0" r="5.8" fill="#8A5CC7" stroke="#3A2626" stroke-width="1.1"></circle><circle cx="109.1" cy="275.1" r="5.8" fill="#FF8A3D" stroke="#3A2626" stroke-width="1.1"></circle><circle cx="114.2" cy="284.9" r="5.8" fill="#FFFFFF" stroke="#3A2626" stroke-width="1.1"></circle><circle cx="119.3" cy="293.4" r="5.8" fill="#E94F64" stroke="#3A2626" stroke-width="1.1"></circle><circle cx="124.4" cy="300.6" r="5.8" fill="#2F9BD6" stroke="#3A2626" stroke-width="1.1"></circle><circle cx="129.6" cy="306.5" r="5.8" fill="#F7B32B" stroke="#3A2626" stroke-width="1.1"></circle><circle cx="134.7" cy="311.1" r="5.8" fill="#57B36A" stroke="#3A2626" stroke-width="1.1"></circle><circle cx="139.8" cy="314.4" r="5.8" fill="#8A5CC7" stroke="#3A2626" stroke-width="1.1"></circle><circle cx="144.9" cy="316.3" r="5.8" fill="#FF8A3D" stroke="#3A2626" stroke-width="1.1"></circle><circle cx="150.0" cy="317.0" r="5.8" fill="#FFFFFF" stroke="#3A2626" stroke-width="1.1"></circle><circle cx="155.1" cy="316.3" r="5.8" fill="#E94F64" stroke="#3A2626" stroke-width="1.1"></circle><circle cx="160.2" cy="314.4" r="5.8" fill="#2F9BD6" stroke="#3A2626" stroke-width="1.1"></circle><circle cx="165.3" cy="311.1" r="5.8" fill="#F7B32B" stroke="#3A2626" stroke-width="1.1"></circle><circle cx="170.4" cy="306.5" r="5.8" fill="#57B36A" stroke="#3A2626" stroke-width="1.1"></circle><circle cx="175.6" cy="300.6" r="5.8" fill="#8A5CC7" stroke="#3A2626" stroke-width="1.1"></circle><circle cx="180.7" cy="293.4" r="5.8" fill="#FF8A3D" stroke="#3A2626" stroke-width="1.1"></circle><circle cx="185.8" cy="284.9" r="5.8" fill="#FFFFFF" stroke="#3A2626" stroke-width="1.1"></circle><circle cx="190.9" cy="275.1" r="5.8" fill="#E94F64" stroke="#3A2626" stroke-width="1.1"></circle><circle cx="196.0" cy="264.0" r="5.8" fill="#2F9BD6" stroke="#3A2626" stroke-width="1.1"></circle><ellipse cx="97.0" cy="180.0" rx="9.0" ry="13.0" fill="#F1C7AE" stroke="#3A2626" stroke-width="1.4" stroke-opacity="0.4"></ellipse><ellipse cx="203.0" cy="180.0" rx="9.0" ry="13.0" fill="#F1C7AE" stroke="#3A2626" stroke-width="1.4" stroke-opacity="0.4"></ellipse><ellipse cx="150.0" cy="172.0" rx="54.0" ry="60.0" fill="#F1C7AE" stroke="#3A2626" stroke-width="1.8" stroke-opacity="0.45"></ellipse><path d="M110 206 Q150 236 190 206 Q150 246 110 206 Z" fill="#DDA488" opacity="0.35"></path><path d="M127 205 Q124 213 128 220" fill="none" stroke="#DDA488" stroke-width="1.6" stroke-linecap="round" stroke-linejoin="round"></path><path d="M173 205 Q176 213 172 220" fill="none" stroke="#DDA488" stroke-width="1.6" stroke-linecap="round" stroke-linejoin="round"></path><path d="M150 178 Q145 192 151 194 Q155 195 157 192" fill="none" stroke="#DDA488" stroke-width="2.4" stroke-linecap="round" stroke-linejoin="round"></path><circle cx="111.5" cy="174.0" r="10.5" fill="#FFFFFF" stroke="#3A2626" stroke-width="2"></circle><circle cx="111.5" cy="174.0" r="4.6" fill="#3A2626"></circle><circle cx="113.1" cy="172.2" r="1.4" fill="#FFFFFF"></circle><circle cx="188.5" cy="174.0" r="10.5" fill="#FFFFFF" stroke="#3A2626" stroke-width="2"></circle><circle cx="188.5" cy="174.0" r="4.6" fill="#3A2626"></circle><circle cx="190.1" cy="172.2" r="1.4" fill="#FFFFFF"></circle><path d="M117 150 Q128 140 137 148" fill="none" stroke="#B9AFA4" stroke-width="3.4" stroke-linecap="round" stroke-linejoin="round"></path><path d="M163 148 Q172 140 183 150" fill="none" stroke="#B9AFA4" stroke-width="3.4" stroke-linecap="round" stroke-linejoin="round"></path><ellipse cx="150.0" cy="214.0" rx="9.0" ry="12.0" fill="#5B1D24" stroke="#D22F3C" stroke-width="3.2"></ellipse><circle cx="116.0" cy="118.0" r="16.4" fill="#CFC7BE"></circle><circle cx="136.0" cy="110.0" r="17.4" fill="#CFC7BE"></circle><circle cx="158.0" cy="108.0" r="17.4" fill="#CFC7BE"></circle><circle cx="180.0" cy="114.0" r="17.4" fill="#CFC7BE"></circle><circle cx="194.0" cy="126.0" r="13.4" fill="#CFC7BE"></circle><circle cx="104.0" cy="132.0" r="13.4" fill="#CFC7BE"></circle><circle cx="116.0" cy="118.0" r="15.0" fill="#FAF8F4"></circle><circle cx="136.0" cy="110.0" r="16.0" fill="#FAF8F4"></circle><circle cx="158.0" cy="108.0" r="16.0" fill="#FAF8F4"></circle><circle cx="180.0" cy="114.0" r="16.0" fill="#FAF8F4"></circle><circle cx="194.0" cy="126.0" r="12.0" fill="#FAF8F4"></circle><circle cx="104.0" cy="132.0" r="12.0" fill="#FAF8F4"></circle><path d="M109.2 119.5 Q116.0 110.5 122.8 119.5" fill="none" stroke="#CFC7BE" stroke-width="1.4" stroke-linecap="round" stroke-linejoin="round"></path><path d="M128.8 111.6 Q136.0 102.0 143.2 111.6" fill="none" stroke="#CFC7BE" stroke-width="1.4" stroke-linecap="round" stroke-linejoin="round"></path><path d="M150.8 109.6 Q158.0 100.0 165.2 109.6" fill="none" stroke="#CFC7BE" stroke-width="1.4" stroke-linecap="round" stroke-linejoin="round"></path><path d="M172.8 115.6 Q180.0 106.0 187.2 115.6" fill="none" stroke="#CFC7BE" stroke-width="1.4" stroke-linecap="round" stroke-linejoin="round"></path><g transform="rotate(0 150.0 172.0)"><circle cx="111.5" cy="172.0" r="33.2" fill="#CFE7F5" fill-opacity="0.35"></circle><circle cx="188.5" cy="172.0" r="33.2" fill="#CFE7F5" fill-opacity="0.35"></circle><path d="M143.8 169.0 Q150.0 154.5 156.2 169.0" fill="none" stroke="#D93A3F" stroke-width="5.199999999999999" stroke-linecap="round" stroke-linejoin="round"></path><circle cx="111.5" cy="172.0" r="33.2" fill="none" stroke="#D93A3F" stroke-width="5.199999999999999"></circle><circle cx="188.5" cy="172.0" r="33.2" fill="none" stroke="#D93A3F" stroke-width="5.199999999999999"></circle><path d="M93.2 163.7 Q96.5 152.1 108.2 151.4" fill="none" stroke="#FFFFFF" stroke-width="2.2" stroke-linecap="round" stroke-linejoin="round"></path><path d="M170.2 163.7 Q173.5 152.1 185.2 151.4" fill="none" stroke="#FFFFFF" stroke-width="2.2" stroke-linecap="round" stroke-linejoin="round"></path></g><path d="M46 352 L98 228" fill="none" stroke="#9C7405" stroke-width="36" stroke-linecap="round" stroke-linejoin="round"></path><path d="M46 352 L98 228" fill="none" stroke="#F4C21B" stroke-width="32" stroke-linecap="round" stroke-linejoin="round"></path><path d="M82.4 265.2 L98 228" fill="none" stroke="#F1C7AE" stroke-width="24" stroke-linecap="round" stroke-linejoin="round"></path><path d="M83.6 262.3 L85.3 258.2" fill="none" stroke="#3A2626" stroke-width="26" stroke-linecap="round" stroke-linejoin="round"></path><path d="M83.9 261.7 L85.1 258.8" fill="none" stroke="#2F9BD6" stroke-width="24" stroke-linecap="round" stroke-linejoin="round"></path><path d="M86.7 254.8 L88.5 250.8" fill="none" stroke="#3A2626" stroke-width="26" stroke-linecap="round" stroke-linejoin="round"></path><path d="M87.0 254.3 L88.2 251.3" fill="none" stroke="#57B36A" stroke-width="24" stroke-linecap="round" stroke-linejoin="round"></path><path d="M89.9 247.4 L91.6 243.3" fill="none" stroke="#3A2626" stroke-width="26" stroke-linecap="round" stroke-linejoin="round"></path><path d="M90.1 246.8 L91.3 243.9" fill="none" stroke="#FF8A3D" stroke-width="24" stroke-linecap="round" stroke-linejoin="round"></path><path d="M254 352 L202 228" fill="none" stroke="#9C7405" stroke-width="36" stroke-linecap="round" stroke-linejoin="round"></path><path d="M254 352 L202 228" fill="none" stroke="#F4C21B" stroke-width="32" stroke-linecap="round" stroke-linejoin="round"></path><path d="M217.6 265.2 L202 228" fill="none" stroke="#F1C7AE" stroke-width="24" stroke-linecap="round" stroke-linejoin="round"></path><path d="M216.4 262.3 L214.7 258.2" fill="none" stroke="#3A2626" stroke-width="26" stroke-linecap="round" stroke-linejoin="round"></path><path d="M216.1 261.7 L214.9 258.8" fill="none" stroke="#2F9BD6" stroke-width="24" stroke-linecap="round" stroke-linejoin="round"></path><path d="M213.3 254.8 L211.5 250.8" fill="none" stroke="#3A2626" stroke-width="26" stroke-linecap="round" stroke-linejoin="round"></path><path d="M213.0 254.3 L211.8 251.3" fill="none" stroke="#57B36A" stroke-width="24" stroke-linecap="round" stroke-linejoin="round"></path><path d="M210.1 247.4 L208.4 243.3" fill="none" stroke="#3A2626" stroke-width="26" stroke-linecap="round" stroke-linejoin="round"></path><path d="M209.9 246.8 L208.7 243.9" fill="none" stroke="#FF8A3D" stroke-width="24" stroke-linecap="round" stroke-linejoin="round"></path><ellipse cx="102.0" cy="210.0" rx="15.0" ry="21.0" fill="#F1C7AE" stroke="#3A2626" stroke-width="1.6" stroke-opacity="0.5"></ellipse><path d="M96.0 191.0 L96.0 202.0" fill="none" stroke="#DDA488" stroke-width="1.4" stroke-linecap="round" stroke-linejoin="round"></path><path d="M102.0 191.0 L102.0 202.0" fill="none" stroke="#DDA488" stroke-width="1.4" stroke-linecap="round" stroke-linejoin="round"></path><path d="M108.0 191.0 L108.0 202.0" fill="none" stroke="#DDA488" stroke-width="1.4" stroke-linecap="round" stroke-linejoin="round"></path><ellipse cx="198.0" cy="210.0" rx="15.0" ry="21.0" fill="#F1C7AE" stroke="#3A2626" stroke-width="1.6" stroke-opacity="0.5"></ellipse><path d="M192.0 191.0 L192.0 202.0" fill="none" stroke="#DDA488" stroke-width="1.4" stroke-linecap="round" stroke-linejoin="round"></path><path d="M198.0 191.0 L198.0 202.0" fill="none" stroke="#DDA488" stroke-width="1.4" stroke-linecap="round" stroke-linejoin="round"></path><path d="M204.0 191.0 L204.0 202.0" fill="none" stroke="#DDA488" stroke-width="1.4" stroke-linecap="round" stroke-linejoin="round"></path><g transform="rotate(-14 46 96)"><rect x="42.5" y="80" width="7" height="20" rx="3.5" fill="#FFFFFF"></rect><circle cx="46.0" cy="106.0" r="4.0" fill="#FFFFFF"></circle></g><g transform="rotate(16 262 104)"><rect x="258.5" y="88" width="7" height="20" rx="3.5" fill="#FFFFFF"></rect><circle cx="262.0" cy="114.0" r="4.0" fill="#FFFFFF"></circle></g></svg>